<?xml version="1.0" standalone="no"?>
<!DOCTYPE svg PUBLIC "-//W3C//DTD SVG 20010904//EN"
 "http://www.w3.org/TR/2001/REC-SVG-20010904/DTD/svg10.dtd">
<svg version="1.0" xmlns="http://www.w3.org/2000/svg"
 width="800.000000pt" height="238.000000pt" viewBox="0 0 800.000000 238.000000"
 preserveAspectRatio="xMidYMid meet">

<g transform="translate(0.000000,238.000000) scale(0.100000,-0.100000)"
fill="#000000" stroke="none">
<path d="M0 1190 l0 -1190 4000 0 4000 0 0 1190 0 1190 -4000 0 -4000 0 0
-1190z m1350 781 c58 -30 106 -76 133 -126 21 -38 22 -52 22 -320 0 -270 -1
-282 -22 -321 -26 -49 -72 -90 -133 -118 -44 -20 -59 -21 -505 -21 l-460 0 -3
455 c-1 250 0 461 3 468 4 11 93 13 462 10 l458 -3 45 -24z m505 15 c78 -33
86 -150 13 -195 -28 -18 -91 -16 -120 3 -69 45 -60 159 15 191 41 18 50 18 92
1z m729 -38 c8 -29 47 -177 86 -328 77 -300 91 -342 126 -365 33 -21 162 -21
193 1 12 9 37 48 55 88 19 40 47 83 65 99 62 52 148 57 214 13 29 -19 44 -44
95 -154 22 -46 58 -62 139 -62 76 0 104 13 128 59 11 22 185 676 185 696 0 3
41 5 90 5 78 0 90 -2 90 -17 0 -36 -182 -717 -202 -757 -33 -65 -60 -96 -108
-124 -41 -24 -57 -27 -163 -31 -156 -4 -196 7 -264 74 -34 34 -57 69 -69 103
-10 29 -21 52 -24 52 -3 0 -14 -23 -24 -51 -24 -69 -94 -143 -153 -163 -63
-22 -243 -22 -306 0 -59 20 -128 93 -154 165 -20 52 -193 716 -193 738 0 7 32
11 90 11 l89 0 15 -52z m2518 24 c63 -32 134 -109 148 -162 7 -27 10 -131 8
-303 -3 -258 -3 -263 -28 -307 -29 -52 -95 -105 -148 -120 -22 -6 -173 -10
-377 -10 -309 0 -344 2 -381 19 -57 26 -109 75 -133 125 -26 53 -29 178 -6
234 22 52 81 110 140 138 48 23 60 24 258 24 l207 0 0 -80 0 -80 -177 0 c-195
0 -234 -9 -261 -60 -18 -35 -9 -107 17 -134 21 -21 28 -21 346 -21 324 0 324
0 347 23 23 22 23 26 23 267 l0 245 -28 27 -27 28 -425 3 -425 3 0 78 c0 43 3
81 7 85 4 4 201 6 438 4 427 -3 430 -3 477 -26z m418 21 c0 -5 40 -160 89
-347 53 -202 97 -349 108 -365 31 -41 83 -53 206 -49 l109 3 32 35 c29 32 39
65 115 360 46 179 88 335 92 348 8 21 14 22 99 22 49 0 90 -1 90 -3 0 -25
-196 -749 -210 -778 -30 -57 -75 -105 -124 -128 -38 -19 -61 -21 -231 -21
-170 0 -193 2 -231 21 -52 25 -100 77 -127 138 -23 52 -206 752 -200 764 2 4
44 7 94 7 49 0 89 -3 89 -7z m1952 -26 c69 -34 113 -84 133 -151 41 -137 -8
-266 -127 -332 l-53 -29 -218 -3 -218 -3 3 83 3 83 198 5 199 5 24 28 c31 36
34 113 5 148 l-19 24 -332 0 -332 0 -19 -24 c-18 -21 -19 -42 -19 -268 l0
-244 25 -23 c14 -13 39 -26 56 -30 18 -3 209 -6 425 -6 l394 0 0 -80 0 -81
-442 3 c-442 3 -443 3 -488 26 -58 30 -96 67 -123 117 -21 37 -22 57 -25 285
-3 160 0 263 8 297 21 96 101 172 201 193 24 5 188 8 364 7 l320 -2 57 -28z
m-5586 -361 c38 -38 44 -77 19 -126 -17 -32 -61 -60 -95 -60 -29 0 -76 26 -94
52 -9 12 -16 40 -16 61 0 31 7 46 34 73 28 28 42 34 76 34 34 0 48 -6 76 -34z
m334 19 c66 -34 81 -111 31 -164 -78 -83 -215 9 -166 113 15 32 62 65 93 66 7
0 26 -7 42 -15z m10 -350 c32 -17 60 -61 60 -95 0 -29 -26 -76 -52 -94 -46
-33 -128 -13 -154 35 -52 101 47 205 146 154z m-1570 -480 c0 -24 -3 -25 -55
-25 l-55 0 0 -141 c0 -140 0 -140 -22 -137 -22 3 -23 7 -26 140 l-3 137 -52 3
c-45 3 -52 6 -55 26 -3 22 -3 22 132 22 l136 0 0 -25z m80 -47 c0 -68 1 -70
18 -55 29 26 77 22 101 -9 17 -22 21 -41 21 -110 0 -77 -2 -84 -20 -84 -18 0
-20 7 -20 74 0 58 -4 79 -19 97 -19 23 -21 23 -48 9 -27 -15 -28 -19 -31 -98
-3 -74 -5 -82 -22 -82 -19 0 -20 8 -20 165 0 158 1 165 20 165 18 0 20 -7 20
-72z m806 51 c44 -21 76 -62 88 -111 16 -67 -31 -154 -99 -183 l-30 -13 28
-11 c16 -6 42 -11 59 -11 30 0 31 0 13 -20 -27 -29 -54 -25 -158 25 -126 60
-157 96 -157 180 0 130 132 204 256 144z m1969 7 c25 -11 35 -21 35 -37 0 -15
-4 -19 -16 -15 -92 35 -154 27 -199 -25 -44 -54 -28 -148 31 -179 36 -20 111
-19 152 2 l32 16 0 -27 c0 -25 -5 -30 -45 -41 -131 -37 -245 34 -245 152 0 72
38 132 100 157 37 15 116 13 155 -3z m2268 3 c30 -8 37 -14 37 -36 0 -20 -3
-24 -17 -18 -53 23 -109 27 -145 12 -142 -60 -69 -263 82 -230 25 6 53 13 63
18 14 6 17 2 17 -18 0 -22 -7 -28 -37 -36 -101 -28 -193 3 -230 79 -28 55 -29
92 -2 147 38 79 128 111 232 82z m-875 -37 c3 -16 -2 -22 -17 -22 -26 0 -36
17 -20 36 16 19 33 13 37 -14z m-2455 -64 c21 -2 33 -9 35 -20 3 -15 -4 -18
-33 -18 l-36 0 3 -67 3 -68 38 1 c29 1 37 -2 37 -16 0 -33 -70 -42 -102 -13
-14 13 -18 31 -18 90 0 69 -1 73 -22 73 -20 0 -18 4 17 41 35 35 40 38 43 20
2 -14 12 -21 35 -23z m2333 2 c27 0 34 -4 34 -19 0 -15 -8 -21 -32 -23 -29 -3
-33 -7 -36 -37 -2 -19 -1 -50 3 -69 6 -32 8 -34 41 -30 31 4 35 2 32 -16 -4
-31 -69 -35 -97 -7 -17 17 -21 34 -21 91 0 59 -3 70 -17 70 -13 0 -8 9 18 36
25 26 35 31 37 20 2 -11 15 -16 38 -16z m-3714 -11 c18 -10 48 -65 48 -89 0
-6 -30 -10 -75 -10 -83 0 -94 -11 -54 -51 21 -21 65 -23 112 -4 26 11 22 -20
-5 -39 -12 -9 -42 -16 -66 -16 -35 0 -49 6 -73 29 -25 25 -29 37 -29 81 0 44
4 56 29 81 31 31 75 38 113 18z m658 -66 c0 -90 7 -105 46 -105 41 0 54 26 54
109 0 66 2 73 20 73 19 0 20 -7 20 -110 0 -102 -1 -110 -19 -110 -11 0 -21 5
-23 11 -3 9 -9 9 -25 0 -33 -17 -71 -13 -93 9 -17 17 -20 33 -20 110 0 83 1
90 20 90 18 0 20 -7 20 -77z m314 58 c12 -13 19 -43 23 -94 5 -61 9 -74 21
-70 20 8 11 -17 -11 -31 -12 -8 -23 -7 -37 2 -15 9 -26 10 -40 2 -31 -17 -59
-11 -76 15 -24 36 -4 69 53 91 35 14 43 21 41 38 -4 28 -53 34 -79 10 -18 -16
-19 -16 -19 9 0 14 8 31 18 36 29 17 87 13 106 -8z m128 8 c3 -9 9 -9 25 0 33
17 64 13 90 -11 21 -19 23 -30 23 -110 0 -81 -2 -88 -20 -88 -18 0 -20 7 -20
79 0 80 -12 111 -44 111 -34 0 -45 -25 -48 -105 -3 -74 -5 -80 -25 -83 -23 -3
-23 -2 -23 107 0 103 1 111 19 111 11 0 21 -5 23 -11z m398 -66 c0 -43 4 -83
8 -89 11 -16 35 -22 57 -14 17 6 21 18 25 91 5 78 7 84 28 87 22 3 22 2 22
-107 0 -103 -1 -111 -19 -111 -11 0 -23 5 -26 10 -4 7 -12 7 -25 0 -30 -16
-68 -12 -90 10 -17 17 -20 33 -20 110 0 83 1 90 20 90 18 0 20 -7 20 -77z
m235 67 c4 -7 12 -7 25 0 28 15 61 12 81 -6 17 -15 20 -15 43 0 34 22 72 20
96 -4 17 -17 20 -33 20 -110 0 -83 -1 -90 -20 -90 -18 0 -20 7 -20 74 0 92 -5
106 -39 106 -43 0 -51 -17 -51 -102 0 -71 -2 -78 -20 -78 -18 0 -20 7 -20 68
0 109 -13 132 -65 112 -23 -9 -24 -15 -27 -92 -3 -75 -5 -83 -23 -83 -18 0
-20 8 -23 94 -1 52 -1 100 2 108 6 15 32 17 41 3z m945 -5 c41 -21 60 -53 60
-100 -1 -107 -137 -144 -207 -55 -18 22 -16 92 3 119 17 24 66 50 97 51 10 0
31 -7 47 -15z m150 -1 c0 -14 2 -14 22 0 12 9 32 16 43 16 11 0 31 -7 43 -16
20 -14 24 -14 44 0 31 22 71 20 94 -5 15 -17 20 -40 22 -110 4 -85 3 -89 -17
-89 -19 0 -21 6 -21 64 0 36 -4 77 -10 91 -8 22 -15 26 -42 23 l-33 -3 -5 -85
c-5 -79 -7 -85 -27 -88 -22 -3 -23 -1 -23 82 0 76 -2 87 -21 96 -16 9 -26 8
-45 -5 -22 -14 -24 -22 -24 -95 0 -73 -2 -80 -20 -80 -19 0 -20 7 -20 110 0
103 1 110 20 110 11 0 20 -7 20 -16z m454 2 c42 -18 66 -51 66 -94 0 -71 -53
-120 -120 -110 l-30 5 0 -59 c0 -51 -2 -58 -20 -58 -19 0 -20 7 -20 165 l0
165 45 0 c25 0 61 -6 79 -14z m154 -73 c3 -93 17 -112 63 -90 22 12 24 19 27
95 3 74 5 82 22 82 19 0 20 -7 20 -110 0 -102 -1 -110 -19 -110 -11 0 -21 6
-24 13 -4 10 -7 10 -18 0 -19 -19 -63 -16 -89 5 -19 15 -24 31 -28 95 -5 86 0
110 25 105 15 -3 18 -16 21 -85z m402 -23 c0 -103 -1 -110 -20 -110 -19 0 -20
7 -20 110 0 103 1 110 20 110 19 0 20 -7 20 -110z m103 98 c4 -10 7 -10 18 0
19 18 63 15 90 -7 22 -17 24 -29 28 -111 3 -91 3 -92 -20 -88 -23 3 -24 7 -27
85 -2 71 -6 84 -23 94 -16 8 -26 7 -45 -6 -22 -14 -24 -22 -24 -95 0 -73 -2
-80 -20 -80 -19 0 -20 7 -20 110 0 102 1 110 19 110 11 0 21 -6 24 -12z m357
-8 c0 -11 -6 -20 -13 -20 -9 0 -12 -9 -9 -29 6 -42 -13 -69 -59 -81 -50 -14
-46 -29 9 -46 56 -16 72 -31 72 -65 0 -39 -38 -63 -101 -63 -33 0 -55 6 -69
19 -26 23 -26 71 0 87 13 8 18 19 14 34 -3 12 -1 25 5 29 8 4 5 15 -9 32 -24
31 -25 51 -4 81 21 31 48 41 112 41 46 1 52 -1 52 -19z m655 4 c33 -15 65 -64
65 -99 0 -30 -30 -75 -62 -91 -40 -21 -102 -13 -134 17 -52 49 -36 146 29 174
42 19 62 18 102 -1z m150 6 c4 -7 12 -7 25 0 28 15 61 12 81 -6 17 -15 20 -15
43 0 34 22 72 20 96 -4 17 -17 20 -33 20 -110 0 -83 -1 -90 -20 -90 -18 0 -20
7 -20 74 0 92 -5 106 -39 106 -43 0 -51 -17 -51 -102 0 -70 -2 -78 -19 -78
-17 0 -19 9 -23 80 -4 94 -20 121 -62 102 -24 -10 -25 -17 -28 -94 -3 -77 -5
-83 -25 -86 -23 -3 -23 -2 -23 107 0 103 1 111 19 111 11 0 23 -5 26 -10z
m434 4 c51 -11 81 -49 81 -105 0 -68 -29 -100 -98 -107 l-52 -5 0 -53 c0 -47
-2 -54 -20 -54 -19 0 -20 7 -20 165 l0 165 39 0 c21 0 52 -3 70 -6z m250 -20
c17 -21 21 -41 21 -96 0 -58 3 -69 15 -64 9 3 15 0 15 -9 0 -18 -48 -31 -62
-17 -6 6 -19 6 -38 -1 -42 -16 -80 4 -80 41 0 33 22 57 69 73 24 9 31 16 29
33 -4 27 -41 33 -74 12 -23 -16 -24 -16 -24 8 0 31 23 45 72 46 28 0 41 -6 57
-26z m131 16 c0 -7 6 -7 19 0 31 16 69 12 91 -10 17 -17 20 -33 20 -110 0 -83
-1 -90 -20 -90 -18 0 -20 7 -20 79 0 59 -4 84 -16 95 -18 19 -17 19 -49 4 -24
-11 -25 -15 -25 -95 0 -82 -1 -84 -22 -81 -22 3 -23 8 -26 97 -1 52 -1 100 2
108 6 15 46 18 46 3z m230 -52 l30 -62 26 62 c22 51 32 62 51 62 12 0 23 -2
23 -4 0 -2 -33 -75 -74 -163 -58 -122 -79 -159 -95 -161 -28 -4 -27 4 9 80 16
34 30 69 30 76 0 7 -16 44 -35 82 -41 81 -42 90 -15 90 16 0 28 -16 50 -62z
m260 42 c0 -5 -9 -10 -20 -10 -17 0 -20 -7 -20 -50 0 -27 -4 -50 -10 -50 -5 0
-10 23 -10 50 0 37 -4 50 -14 50 -8 0 -18 5 -21 10 -4 6 13 10 44 10 28 0 51
-4 51 -10z m63 -37 l14 -47 15 44 c8 26 22 46 31 48 14 3 17 -6 17 -57 0 -69
-17 -83 -22 -18 l-3 42 -14 -43 c-17 -49 -30 -50 -47 -1 l-12 34 -1 -37 c-2
-63 -21 -42 -21 22 0 76 23 83 43 13z"/>
<path d="M560 1530 l0 -301 364 3 c342 3 365 4 385 22 20 18 21 28 21 271 l0
252 -26 24 -26 24 -359 3 -359 3 0 -301z"/>
<path d="M1404 765 c-87 -44 -86 -178 2 -220 69 -32 146 -1 173 70 28 73 -22
151 -105 161 -24 3 -51 -1 -70 -11z"/>
<path d="M981 651 c-16 -30 -15 -31 40 -31 47 0 50 2 47 23 -4 31 -71 38 -87
8z"/>
<path d="M1987 584 c-35 -19 -34 -57 1 -62 25 -4 35 13 30 51 -3 25 -4 25 -31
11z"/>
<path d="M3652 647 c-44 -46 -14 -117 48 -117 65 0 94 79 44 119 -35 27 -65
27 -92 -2z"/>
<path d="M4270 600 l0 -70 34 0 c55 0 86 44 66 94 -10 26 -44 46 -81 46 -17 0
-19 -7 -19 -70z"/>
<path d="M5242 658 c-20 -20 -14 -48 13 -60 30 -14 55 3 55 37 0 33 -44 47
-68 23z"/>
<path d="M5220 465 c-19 -23 5 -45 49 -45 49 0 69 14 55 37 -15 24 -86 30
-104 8z"/>
<path d="M5929 652 c-46 -38 -16 -122 45 -122 38 0 66 28 66 66 0 64 -62 95
-111 56z"/>
<path d="M6545 658 c-4 -9 -5 -40 -3 -69 l3 -54 37 -3 c28 -2 40 2 52 20 19
27 21 68 3 91 -17 24 -85 35 -92 15z"/>
<path d="M6786 577 c-26 -19 -17 -52 14 -52 21 0 26 5 28 33 4 35 -11 42 -42
19z"/>
</g>
</svg>
